/* XPM */
static char *f7fe0636e6c5436aedfd4dfdcf1ddddf8DsVFkZsVkeFbeEK[] = {
/* columns rows colors chars-per-pixel */
"64 64 180 2 ",
"   c #010101",
".  c #090402",
"X  c #070800",
"o  c #040309",
"O  c #08040D",
"+  c #07080A",
"@  c #0A0A0B",
"#  c #130E00",
"$  c #170902",
"%  c #0D100C",
"&  c #1C1706",
"*  c #0B0914",
"=  c #120C16",
"-  c #131313",
";  c #16151A",
":  c #17181A",
">  c #1D1D1D",
",  c #272204",
"<  c #35290F",
"1  c #24221E",
"2  c #2F221A",
"3  c #1E1A24",
"4  c #171321",
"5  c #232324",
"6  c #2B2B2B",
"7  c #2E2E30",
"8  c #323232",
"9  c #36363A",
"0  c #3B3B3C",
"q  c #403B1D",
"w  c #413E2F",
"e  c #443034",
"r  c #5B591E",
"t  c #4B4537",
"y  c #443F47",
"u  c #3F4042",
"i  c #454545",
"p  c #47484A",
"a  c #4C4C4C",
"s  c #4A4748",
"d  c #4C4E52",
"f  c #4C4650",
"g  c #554D53",
"h  c #4F5053",
"j  c #535354",
"k  c #555659",
"l  c #56595C",
"z  c #5B5B5C",
"x  c #685C53",
"c  c #655845",
"v  c #6C664D",
"b  c #575C62",
"n  c #5B5E62",
"m  c #576067",
"M  c #5E6164",
"N  c #5D646B",
"B  c #5F686F",
"V  c #636364",
"C  c #63666A",
"Z  c #68656B",
"A  c #64696E",
"S  c #6A6B6C",
"D  c #6C6865",
"F  c #736E6B",
"G  c #6E706F",
"H  c #656C73",
"J  c #6C6E72",
"K  c #6A6078",
"L  c #6E7174",
"P  c #6C747A",
"I  c #727374",
"U  c #72767A",
"Y  c #74797D",
"T  c #7B7C7D",
"R  c #807A3C",
"E  c #817850",
"W  c #8B8553",
"Q  c #9B9665",
"!  c #AAA36C",
"~  c #757B82",
"^  c #7B7E82",
"/  c #8F7F8C",
"(  c #778087",
")  c #7E8185",
"_  c #7D8389",
"`  c #838384",
"'  c #84868A",
"]  c #86888C",
"[  c #8B8B8D",
"{  c #868B91",
"}  c #8C8E91",
"|  c #8F9093",
" . c #929395",
".. c #959699",
"X. c #97989A",
"o. c #9A9B9D",
"O. c #9E9495",
"+. c #AE9B9D",
"@. c #9D9FA2",
"#. c #9FA0A2",
"$. c #9FA6AC",
"%. c #A3A3A4",
"&. c #A4A6A9",
"*. c #A7A8AB",
"=. c #AAABAD",
"-. c #A8A9A4",
";. c #AFB0A8",
":. c #ACADB1",
">. c #A9A5B4",
",. c #B1ADB8",
"<. c #AEB1B4",
"1. c #ABB2B8",
"2. c #B2B3B4",
"3. c #B5B5BA",
"4. c #B7B8BA",
"5. c #BBBBBC",
"6. c #BEBFC1",
"7. c #C0BFC4",
"8. c #BEC0C3",
"9. c #B9C2C9",
"0. c #C2C3C4",
"q. c #C5C6C9",
"w. c #C7C8CA",
"e. c #CBCCCD",
"r. c #CDCFD1",
"t. c #CFD0D3",
"y. c #D3D3D5",
"u. c #D5D6DA",
"i. c #D5D8DB",
"p. c #DBDCDD",
"a. c #E4E0DD",
"s. c #DDDEE1",
"d. c #D3DAE0",
"f. c #E1D7E3",
"g. c #DFE0E3",
"h. c #E3E4E5",
"j. c #E7EAE7",
"k. c #E9E9E6",
"l. c #E5E7E9",
"z. c #E7E9EB",
"x. c #E9EAEE",
"c. c #EAEBEF",
"v. c #EAEBED",
"b. c #EBECEE",
"n. c #EBEDEC",
"m. c #ECEEED",
"M. c #ECEDEF",
"N. c #EDEDEF",
"B. c #EDEFEE",
"V. c #EBECED",
"C. c #F0E0ED",
"Z. c #EEF0EF",
"A. c #F1F1EE",
"S. c #EBECF0",
"D. c #EAEDF2",
"F. c #ECEDF1",
"G. c #EDEEF0",
"H. c #EEEFF1",
"J. c #EEEEF0",
"K. c #EDEEF2",
"L. c #EDEEF3",
"P. c #EEEFF3",
"I. c #ECEDF2",
"U. c #EDEEF1",
"Y. c #E6EDF3",
"T. c #EFF0F2",
"R. c #EFF1F0",
"E. c #EFF1F5",
"W. c #EFF0F2",
"Q. c #EAF2F8",
"!. c #F0F1F3",
"~. c #F0F1F5",
"^. c #F1F2F5",
"/. c #F2F2F4",
"(. c #F2F4F9",
"). c #F5F6F9",
"_. c #F4F6F9",
"`. c #FFF4FF",
"'. c #F6F8FB",
"]. c #FBFCFC",
/* pixels */
"M.M.M.M.M.M.M.M.v.b.G.b.v.v.v.G.T.M.M.v.M.T.G.G.M.M.M.G.M.b.v.v.T.G.D.I.L.~.G.D.I.I.x.N.N.N.J.J.N.n.n.n.n.k.k.Z.Z.n.n.Z.n.n.n.Z.",
"M.M.M.M.M.M.M.M.v.M.T.G.b.v.v.M.b.b.M././.G.v.l.z.v.M.T./.Z.T.M.v.v.x.Y.I.L.I.I.l.x.x.N.N.N.N.J.!.N.n.A.M.v.v.n.Z.n.n.Z.n.Z.n.n.",
"M.M.M.M.M.M.M.M.b.G.T.G.M.v.b.v./.M.b.n.b.G.G.G.]._.l.p.r.w.0.6.8.0.w.t.d.l.~.].).L.l.x.!./.N.l.A.n.n.A./.n.n.v.n.n.n.n.Z.n.Z.n.",
"M.M.M.M.M.M.M.M.M.G.G.G.M.M.M.M.T.T.M.M.M.v.h.s.2.=.&.o.....X.o.X.X...| | ..@.*.e.s.E.(.x.l.x./.x.v.l.x.x.A.x.I.n.Z.Z.n.n.n.Z.n.",
"M.M.M.M.M.M.M.M.G.b.v.v.b.G.T.T.M.M.M.v.h.e.3.*.%.@.o. .] ] ` ` ^ ( / ' ] ]  .X.{ @.6.t.l.E.E.E.M.M.D.v.v.v.G.G.n.Z.Z.n.n.n.Z.n.",
"M.M.M.M.M.M.M.M.M.v.v.v.b.M.M.M./.l.u.0.=.o.} ' T ` ] [  . . ..... . . .[ / Y P / ^ ~ ..6.u.l.D.~././.L.v.D.G.I.n.n.n.n.Z.n.Z.n.",
"M.M.M.M.M.M.M.M.b.v.v.b.G.b.z.h.p.w.=...] ] [ | =.&.#... .[ [ [ ] ] ] ] } }  ...~ { { { ~ ^ ,.d.f.D.E.L.D.x.I.I.Z.n.n.Z.n.Z.n.n.",
"M.M.M.M.M.M.M.M.b.b.G.G.T.v.h.p.-.#...} | ..o.#.] T S l j k Z S J C l j b J Y / { { ~ ^ _ _ { _ y.l.G.G.x.D.I.G.Z.n.n.Z.n.n.n.Z.",
"M.T.M.T.T.M.M.M.G.G._.h.b.b.5.&.#.T ] o.#.o.` z M I o.e.h.G./.l.G.L.L.l.w.@.Y M b H _ { ( ^ ( ] ~ >.x.z.L.Q.s.Y.G.G.L.T.G.Z.b.Z.",
"G.G.G.T.T.M.M.M.l.].h.E.z.2.=.} ^ o.*.o.T l S 4.s.f.h.h.l.M./.J.l.x.L./.~.I.l.l.,./ C P { ] ~ J ~ ~ ..x.(.s.].l.S.G.L.T.T.M.b.n.",
"M.M.G.G.M.M.M.M.G.G.G.p.5. .^  .#.;.) d T q.h.g.T.]._._./.v.l./.~.G.D.v.x.I./.(.E.s.=.P n L ' ' J ^ ~  .d.'.l.E.L.S.L.G.b.Z.Z.n.",
"b.M.M.G.G.G.M.M./.h.l.2. .[ ` *.%.Z Z 2.s.z._./.n.z.h.v._.v.l.G.~.I.I.D.x.x.x.x.(.(.(.l.>.S N ` ' ~ { H ' l.(.Y.S.S.G.G.Z.n.Z.Z.",
"b.b.M.M.M.M.M.b.h.M.2.X. .| &.} k ` 8.].^.z._.s.).].T.h.v._./.v.D.I./.(.(.~.I.I.D.l.~.`.).0.` z Y / J ~ U } s.Q.x.b.S.b.b.b.Z.b.",
"M.M.M.M.M.b.b.v.p.e.o.' ..o.' Z ` M.).g.g.u.=.V T 8.].].h.G.'.l.L.J.J.x.x.x.l.l.D.].N.y.l.].f.X.C Y J P _ U ..l.x.b.S.b.Z.Z.Z.Z.",
"M.M.M.G.b.v.v.z.e.X.X.]  .[ S  ./.T.h.].r.6   +   9 <.].A.h.J.n.I.D.x.x.I.J.(.(.I.x.N./._.G.M.A.&.M ^ ~ C ~ _ @.x.x.b.b.b.Z.Z.n.",
"T.T.T.G.b.v.l.z.%.} T %.X.V ..j.v.^./.s.C     + @   p i._.l.J./.I.G.I.I.x.I.I.x.x.n.N.J.M.k.l.x.s.&.b L ' A J ~ x.x.b.b.b.n.Z.Z.",
"v.v.T.v.l./.h.=.o.` ....S ' ].h.p.].h.k.: @   . +     l.].h.'.k.v.v.v.v.v.v.v.v.G.h.M.M.l.v.b./.l.].] M Y A ~ P ( Q.Q.g.(.j.Q.Z.",
"v.M.v.T.l.n.w.%.' [  .` I e.M.v.].A.h.].:     -   % @ s.k.].p./.M.M.M.M.M.M.x.I._.M./.T././.v.M.(.s.i.^ U L H Y P 9.Y.Y.'.j.Z.Z.",
"b./.z./.v.p.=.| ` | ] J 4.M.].z.p.k.].p.Z       %   x /.u.m.]./.G.G.G.G.G./.G.L.v.M.l.l.v.v.v./.(.h.].8.N ) m Y H _ d.Q.(.k.j.A.",
"M.T.b.M./.q...` ]  .S X._.p.].v.].h././.j.8       8 8._.].n.h.a.v.b.v.v.v.v.v.v.l._._._.].z.k.M.l._.G.(.] P N P P P 1.'.E.v.k.A.",
"M.v.^.h.T.=.] ` ..[ z h.M.T.l.E.u.l.v.].l.Y.6.P %.k.A.k.h.A.b.].M.M.G.G.G.G.G.G.v./.h.l.b.v._./.v.^./.c.g.H Y B P P ( Y.b.b./.j.",
"M.z.).h.p...' '  .S o./.h.].s./._.].a.;.` E / Y T T ` 0./.l.v.a.v.v.v.v.z.v.v.v././.h.G./.v._.u.T.v.G.h.Q.#.H B H Y B e.c.R.'.n.",
"M.b./.v.4.[ ` [ ] S g.h.G.T.S.G.a.h.[ - +     o       8 n.'.Z.n.v.z.v.v.z.v.v.z.p.s.h.].z.l.].h.b.b.h.Q.Y.d.Y B B P A @.v./.A.n.",
"v./.b./.o.] T  .U ` h.^.b.l./.b.A.S               @     x '.h.D                 +         0 y._.v.T.v.W.'.g.$.B B H Y U l.A.k.n.",
"M.b.G.e. .` T [ V w.T.b.v.v.v.T.`           @     @ X     0.s -                   o   %   @ 5 u.b./.M.T.S.z.0.J B B P N i.Y.z.Q.",
"b.v./.8.[ / ` ] C t.M.M.T.T./.y.5   8 0   +     + o   . X 6 +                   X             0.v.M.b.T.T.T.t.` H B P B 9.z.n.^.",
"n.v._.=.} T [ ^ ^ j.T.M./.G.G.|   @  .V o     X     >   @ : 8 -                     o   o   8 w.z.b.v.M.G.^.g.o.B B H B #.z.Y.W.",
"v.l._.X.[ Y } I ..^.M.v.T.z.z.a   8 a.j @         @   6 ] @ 0 8                       @   @ 6.a.G.M.v.T.M.^.z.;.P N B H ~ c.Y.n.",
"M.l./.] ' T } Z *./.z.l.G.b.G.6 @ s '.a     +   o     6 _.Q : s                       @   % _.m./.M.v.M.z.Z.b.8.P N H H N n.Y.W.",
"M.l.n.' E T [ V 0.M.M.v.G.v.M.:   k /.V   +       -   7 Q.l.5.s                 +   .   . 1 y._.b.v.z.T.c.Y.T.r.( N H A m z.n.Y.",
"/.l.h.' _ ^ { C p.v./.G.G.v.v.;   z n.S       o -   o 8 u.`.G.z                     o   @ 6 p./.v.v.v./.n.n.^.y.( m H A m Y.g.Q.",
"/.h.s.] ^ ^ ] C p.p.G.G.M.b./.5   h a.j @     .   @   8 E.l.M.S                       -   5 ].p.M.b.b._.n.j./.y.( m H N N g.g.R.",
"A.j.a.` ^ Y ) A p.l._.T.v.G.h.V X @ /.j +   @         7 k.A.h.T                           0 A.A.I.A.x.'.v.l._.p.) N Z A n i.z.S.",
"Z.Z.g.` ` U ) A y.h.T.G.G.v.G...  @ 5.k O -   @       6 l./.k.'                           i x.A.x.x.x./.v.v./.u.^ n A A n l.c.S.",
"n.Z.j.T ' U T A w.l.b.G./.l.^.y.4 o Z M   * o 9       6 v./.n.+.                          j n.A.A.M.x./.l.v./.r.^ b H A m R.W.n.",
"k./.n.^ ` U Y L 5.G.G.S./.h./.b.K O 6 ` 3 o ; ,.      6 n.A.N.-.                          V n.M.G.M.v.J.v.M.G.0.^ b J Z b ^.Z.Y.",
"v./.v.[ T P U U @._./.z.E.v.T.b.`.k . & s =   3.      6 n.m.n.2.                    X     I C.n.x.M.v.M.x./.M.4.~ l H M H /.B.n.",
"k./.k.&.I U U U ) v.M.v.G./.G.z.f.2 & . x Z O 3.      6 A.k.n.5.                    @     [ n.n.x.J.v.M.M._.l.-.L m G z [ j.n.Y.",
"n.n.k.q.I ^ I Y S p.v.M.b.T.G.v.+.< W Q v s o =.      6 m.n.A.r.                    @     O.n.n.M./.v.x.M./.p. .A N A b 1.g.Q.j.",
"A.n.v.p.I ) P U V e.l.^.v.v.v.E.x E R r , F g :.  o   6 A.A.A.p.                o   @     o.m.k.J./.v.v.x./.u.' l C A m t.g.'.R.",
"J.x.Z.v.I ` Z T G #.h.'.j.j.'.z.e $ ! Q $ 5 i 5.X     1 n.k.A.A.@   o     @       o   @   2.k.m.G.l.v./.x.h.4.I b A C A x.Q.l.S.",
"n.x._.z.*.I L L I G h.Z.c.z.L.E.e c ! E # . f =.      6 A.A.A.k.@         o X + @         6.h././.v.v.G.M.p.%.n n A h { x.x.c.E.",
"l.x./.h.h.S I G G z =._.s.).g.(./ $ v q . y 3 ,.      6 n.n.A.a.1     +       o         o q.n.k.G.G.v.v.M.0.` j H C f q.Y.j.c.E.",
"A.I.J.f.^.' S I D G I s.j.^.z.x.f.O.w e s 3 * >.      6 k.A.'._.8     @           -   @ . e.].A.v.v.v./.h.%.C n H C P x.Q.Y.j.R.",
"M.M.l.M.M.2.Z I G G G  .].l.'.g.`.a.a.D O O O ,.  o   8 A./.s.G.0 +   +       X   @       j.y.A.v.G.G.G.e.T j S b n :.Q.R.Q.j.n.",
"v.v.v.).l.h.^ S G S G S y.L.D.L.i.]._.k o     q.    o 8 l.y.U  .a -           . o   @     u.V 2.T./.v.u.@.M g S k P d.z.n.^.g.n.",
"v.v.M./.z._.3.S S G z I ] i.l.(./.G.s.Z     @ *.o   o 6 k.3.- 9 0 -             +   -   - T   T G.G.p.=.L z n n A $.Q.z.n.Q.Y.R.",
"G./.M.h.n.^.j.L S I z J J X.].b.j.b.M.V   X   ;.O   O 6 ).7.  5 -   + @   @ + + + @ .   - >   ' v.v.r.' h M J k ^ t.'.n.Y.n.Y.R.",
"/.M.T.T.T.M.l.p.V T M l L V #./.b.].p.=.:   0 y.p   @ ` h.2.> u k.k.h.h.k.f.k.k.h.n.k.u._.} + T v.0.[ V k z Z V i.h.b.G.G.b.b.M.",
"b.M.M.M.T.M.v.l.2.l S ) p S ) *.T.b./.z.2.#.e._.s.=.:.s.].z.| 0.!.!.A.N.A.n.v.k.h.n./.h.].y.' 7.q.o.z l J j j o.h.v.G.T.b.z.v.b.",
"b.v.b.b.G.T.M.b.v.] Z D T h S G =.p.].l.].v.M._._.v.l.G.M.T.h.].k.v.v.n.n.n.n.v.A.n./.k.k.].l.r.} l j V l k  .u.G.T./.G.v.z.v.G.",
"b.M.v.b.M.G.M.G.v.M.Z z D L l V I  .l.n.z.s.].i.z.T.M.G.l.b./.v.m.C.N.A.N.A.!.J.A.v.n.x.a.a.9.Q l j S V i ` p./.b.G.T.b.v.b.M./.",
"M.M.b.b.b.b.M.G./.j.h.V h L L k p U o.<.n._.Z._.M.M.M._./.M.].s.A.A.x.A.n.A.n.x.v.N.C.A.y.-.T j k S n j T 6.v./.v.v.b.M.b.M.G.T.",
"G././.G.b.v.b.M.M.M.v.u.S M z V V h k ` ..r.b.j./.M.M.l.v.h._.G.k.k.n.x.A.A.A.A.A.A.u.5. .M a z S a p T 0.v./.v.v.b.M.M.b.b.v.v.",
"M.T.T.G.M.b.M.T.M.G.l._.p.L S Z S L j l D ' o.w.b.v._.v./.l.G./.n.n.A.!.A.m.k.h.t.5.O.G z h j D V d ^ w.l._._.l.b.M.b.M.M.b.b.v.",
"v.M.T.T.M.b.M.T.v.v.^.Z.^.j.[ l M V S V h j H T ..@.e.y././.v.v.C.n.v.h.u.0.4.;.[ G z s j L D j u @.p.G.].v.p._.M.b.v.b.M.G.G.M.",
"M.M.M.M.M.M.M.M./.M.v.v.G.G.s.w.j z x D S M j a z D T [  .X.#.-.-.%.-.+...` D k a a x S Z j h z w.p.G./.v.v.M.T.M.M.M.M.M.M.M.M.",
"M.M.M.M.M.M.M.M.v.M.G.v.G./.v.s.r.| z j M D D D j j j j j z V D I D j a a h j j S S Z k i k o.a.s.z./.M.b.M.M.b.M.M.M.M.M.M.M.M.",
"M.M.M.M.M.M.M.M.l.G./.G.v.M.G.G.`.A.e.` j j z D G D V z z j a s i a k V D D D V z a i x ` 4.a.Z.G./.M.b.M.T.M.z.M.M.M.M.M.M.M.M.",
"M.M.M.M.M.M.M.M.v.G.G.M.v.v.M.G./.k./.].u.} z j j j k z D D S S G G S V z j j k j G X.6.a././.Z.G.b.v.v.M.G.M.v.M.M.M.M.M.M.M.M.",
"M.M.M.M.M.M.M.M.M.b.M.M.M.v.v.v.A./.A.p.h._.l.5.` T V j g a j j j j a a h M I ` 2.y.A./.n.x./.A.v.v.v.b.b.b.b.b.M.M.M.M.M.M.M.M.",
"M.M.M.M.M.M.M.M.G.v.v.G./.G.M.M.l.a.l.].].n.Z.].]./.a.0.2.%.O...[ O.=.5.t.a.Z.].`./.k.h.k.A.n.k.b.b.T./.M.v.b.T.M.M.M.M.M.M.M.M.",
"M.M.M.M.M.M.M.M./.b.b.G./.M.M.G./.].M.p.a.A.A.a.a.l.n.A.A.A.m.m._./.A.M.k.k.n.Z.k.n./.!.N.N././.T.b.G.T.T.v.b.T.M.M.M.M.M.M.M.M.",
"M.M.M.M.M.M.M.M./.G.M.G.v.l.v.T.n.n.A.A.M./.A.M.M.A./.A.m.k.m.m.n.n.n.n.Z.A.Z.Z.n.n.n.N.A.n.n.M.G.v.z.b.T.M.G./.M.M.M.M.M.M.M.M."
};
