/* XPM */
static char *_278bae2ca874e07e53b2c0c6791a8c7M130a7uG0GYbtdDE[] = {
/* columns rows colors chars-per-pixel */
"32 32 160 2 ",
"   c #010202",
".  c #060807",
"X  c #0A0A07",
"o  c #060608",
"O  c #070908",
"+  c #0A0B0B",
"@  c #10110D",
"#  c #0F0F11",
"$  c #131314",
"%  c #171813",
"&  c #191A14",
"*  c #1C1C1C",
"=  c #22231E",
"-  c #232325",
";  c #2C2C2E",
":  c gray19",
">  c #373739",
",  c #42433E",
"<  c #3D3E41",
"1  c #403F44",
"2  c #434444",
"3  c #4B4C47",
"4  c #434248",
"5  c #47484A",
"6  c #4C4C4C",
"7  c #51524D",
"8  c #4F4F51",
"9  c #525354",
"0  c #595957",
"q  c #555659",
"w  c #55595D",
"e  c #5A5B5C",
"r  c #575C60",
"t  c #5D5E61",
"y  c #5E6164",
"u  c #5F6468",
"i  c #636364",
"p  c #636569",
"a  c #67686A",
"s  c #6A6B6D",
"d  c #6C6D72",
"f  c #6E7073",
"g  c #737475",
"h  c #7B7C77",
"j  c #74757A",
"k  c #77787A",
"l  c #7A7B7D",
"z  c #767980",
"x  c #7D7D81",
"c  c #7F8082",
"v  c #838384",
"b  c #878882",
"n  c #868688",
"m  c #87888A",
"M  c #8A8A8C",
"N  c #90908E",
"B  c #8D8E90",
"V  c #8C9193",
"C  c #939395",
"Z  c #9B9C97",
"A  c #969699",
"S  c #969B9F",
"D  c #99999B",
"F  c #A1A29C",
"G  c #9D9EA1",
"H  c #9FA1A4",
"J  c #A4A5A7",
"K  c #AAABA6",
"L  c #A6A7AB",
"P  c #A5A9AD",
"I  c #ABACAE",
"U  c #AEB3AD",
"Y  c #ADAEB2",
"T  c #B3B3B5",
"R  c #B3B8B4",
"E  c #B9BAB5",
"W  c #B6B6B8",
"Q  c #B7B8BA",
"!  c #BBBCBD",
"~  c #BFC0C2",
"^  c #BCC3C9",
"/  c #C2C2C5",
"(  c #C7C7CA",
")  c #C8C7CC",
"_  c #CCCCCD",
"`  c #CECFD1",
"'  c #CFD2D4",
"]  c #D2D3D4",
"[  c #D6D8D7",
"{  c #D4D5D9",
"}  c #D7D8DB",
"|  c #DBDBDD",
" . c #DEE0DF",
".. c #E0E2DD",
"X. c #DEDEE1",
"o. c #E0DFE5",
"O. c #DFE0E2",
"+. c #DCE3E9",
"@. c #E3E4E5",
"#. c #E6E6E9",
"$. c #E8E7ED",
"%. c #E7E9EA",
"&. c #EAEBED",
"*. c #E8F0E5",
"=. c #EDF2ED",
"-. c #F1F3ED",
";. c #E3EAF0",
":. c #E4EBF1",
">. c #E7ECF0",
",. c #EDEEF0",
"<. c #EEEFF1",
"1. c #EFEFF1",
"2. c #EEEEF0",
"3. c #E8EFF5",
"4. c #EDEDF1",
"5. c #F0EFF4",
"6. c #EFF1F0",
"7. c #EFF0F2",
"8. c #EEF1F4",
"9. c #ECF3F9",
"0. c #EEF5FB",
"q. c #EFF6FC",
"w. c #F0F1F3",
"e. c #F1F1F3",
"r. c #F0F0F2",
"t. c #F1F3F2",
"y. c #F2F4F3",
"u. c #F1F2F4",
"i. c #F2F2F4",
"p. c #F2F3F5",
"a. c #F3F4F6",
"s. c #F4F5F7",
"d. c #F5F5F7",
"f. c #F5F7F6",
"g. c #F2F3F5",
"h. c #F4F8F4",
"j. c #F9FAF5",
"k. c #F5F6F8",
"l. c #F6F7F9",
"z. c #F7F7F9",
"x. c #F5F5F9",
"c. c #F7F8FA",
"v. c #F5FCFF",
"b. c #F4F8FC",
"n. c #F8F8FA",
"m. c #F8F9FB",
"M. c #FAFCFB",
"N. c #F9FAFC",
"B. c #FAFAFC",
"V. c #FAFBFD",
"C. c #FBFBFD",
"Z. c #FBFCFE",
"A. c #FBFDFC",
"S. c #FDFDFF",
"D. c #FCFDFF",
"F. c #FDFEFF",
"G. c #FEFEFF",
"H. c #FEFFFF",
"J. c white",
"K. c #FDFDFE",
/* pixels */
"p.&.%.,.p.,.,.&.c.} %.a.c.%.m.s.a.7.a.a.&.&.&.%.%.e.p.7.%.%.%.p.",
"%.&.,.&.%.%.%.,.@.N.S.#.{ ! I I L I R { a.%.%.S.%.e.7.%.,.z.7.#.",
"%.p.p.%.%.&.d.p.a.| ! H m B M l n x v l l T %.%.S.&.%.,.p.,.%.&.",
"p.p.,.%.,.z.5.@.! C M M n s s s q p s l m d g P #.&.p.,.#.%.,.p.",
"e.,.%.%.z.7.` Y v D l e ! [ %.S.S.m.| H i g M g A ' z.,.@.,.d.%.",
"&.%.&.p.,.] J x C g Q S.S.@.5.@.O.&.&.V.S.~ k a i n / d.N.%.%.,.",
"%.,.a.7.] L m v s S.z.W ` S.#.5.e.7.c.p.%.7.} J j t v ] N.%.X.z.",
"%.,.f.@.Y x x A S.e.9   o / p.&.&.&.@.%.,.a.a.c.C g p M ] N.m.%.",
"p.#.p._ k C M 5.%.j.o     g z.&.=.%.&.h.&.@.M.&.m.C y g G 0.v.:.",
"&.&.5.M A i @.B.S.S.q $   ] #.#.e.*.@.y.h.=.=.} f.[ g j u :.;.9.",
"&.S.W v M D S.2.@.p.X.A Y %.S.5.S.S.A.M.y.7.h.V.,.S.! w u Y 9.9.",
"5.B.n A i S.@.2.5.#     #   X.z.i f g g g v N  .,.z.z.r f s v.%.",
"i.| M M l S.5.B.  o   +   # ;   @ +           t 8.=.q.H u w +.3.",
"i.( c g ! 2.B.! o ~ o +     > -           O O E S.O.3.' y w ^ 9.",
"d.! s g #.r.j.l $ _       o x.9   + O       . M.V.@.v. .u r P 0.",
"n.T l i &.5.B.n $ /     o o z./         .     S.%.7.0.;.u z c q.",
"*.U z y $.z.2.(   E X .   . A.~ +           @ B.5.o.f.p.e i C z.",
"=.W d d { n.5.&.& i   6 @   j.%.    $       = B.e.#.z.@.e t J p.",
"h.! d d / 5.j.B.F   7 0   $ j.#.    O       : A.e.&.&.X.9 t T z.",
"0.} d j A z.-.j.e Z 3 v   $ i.A..   o     . 2 m.&.#.d.! t 9 ] s.",
">.b.z z y B.&.-.. K @ N .   S.A.      o     0 B.&.%.S.g a q N.,.",
"=.s.Y t i / z.j.b , = s   . S.S.o           g S.&.S.] w 5 H S.%.",
"=.%.#.u j j ..j.-.K & h     -.` $ + .   o + s ! p.f.l i 8 ,.%.7.",
"*.h.>.G y q L i.j.E   e     S.          .   % $ S./ 0 w B S.X.f.",
"@.M.@.N.e z w I B.4.1 ) s n B.2 S.j.S.S.m.S.| s [ 9 e 9 S.%.z.%.",
"%.*.5.9.%.> p p Y B.5.B.n.B.@.B.f.%.&.#.| S.S.` a i > %.,.%.%.z.",
"p.@.N.@.A.[ 2 9 9 M } i.n.5.#.5.&.&.B.S.S.| A 8 4 < { f.O.S.%.,.",
"s.a.X.m.%.&.%.e 7 0 e A { o.B.z.B.B.%.( D i 9 e q %.,.%.S.@.a.%.",
"4.$.S.| f.-.%...l 7 0 0 1 r d l n g t q e 6 8 s | &.N.S.} c.@.p.",
">.4.p.e.@.2.-.A.B.) g 5 e d 1 i 0 0 8 6 0 k / S.S.%.%.%.f.,.%.,.",
"@.S.%.] S.>.&.%.x.x.5.n.T v n i p g A / #.e.e.&.a.%.| S.| a.S.| ",
"h.| &.x.#.4.x.#.$.x.$.4.B.e.j.S.B.B.z.d.e.e.d.#.#.m.7.#.p.7.| c."
};
